# xmcd
#
# Track frame offsets: 
#        150
#        6751
#        21987
#        40644
#        59083
#        80243
#        95390
#        111703
#        129009
#        144802
#        162542
#        180499
#
# Disc length: 2688 seconds
#
# Revision: 2
# Processed by: cddbd v1.5.2PL0 Copyright (c) Steve Scherf et al.
# Submitted via: ExactAudioCopyFreeDBPlugin 1.0
#
DISCID=9d0a7e0c
DTITLE=At The Gates - To Drink From The Night Itself [CD1) [2CD ltd. m
DTITLE=ediabook, Century Media 19075846372]
DYEAR=2018
DGENRE=Melodic Death Metal
TTITLE0=Der Widerstand
TTITLE1=To Drink From The Night Itself
TTITLE2=A Stare Bound In Stone
TTITLE3=Palace Of Lepers
TTITLE4=Daggers Of Black Haze
TTITLE5=The Chasm
TTITLE6=In Nameless Sleep
TTITLE7=The Colours Of The Beast
TTITLE8=A Labyrinth Of Tombs
TTITLE9=Seas Of Starvation
TTITLE10=In Death They Shall Burn
TTITLE11=The Mirror Black
EXTD=
EXTT0=
EXTT1=
EXTT2=
EXTT3=
EXTT4=
EXTT5=
EXTT6=
EXTT7=
EXTT8=
EXTT9=
EXTT10=
EXTT11=
PLAYORDER=
